<svg xmlns="http://www.w3.org/2000/svg" xml:space="preserve" width="655.359" height="655.359"
    style="shape-rendering:geometricPrecision;text-rendering:geometricPrecision;image-rendering:optimizeQuality;fill-rule:evenodd;clip-rule:evenodd"
    viewBox="0 0 6.827 6.827"><defs><style>.fil1{fill:#fffffe;fill-rule:nonzero}</style></defs><g id="Layer_x0020_1"><rect width="6.827" height="6.827" rx=".853" ry=".853" style="fill:#424242"/><g id="_512192616"><path id="_512192448" class="fil1" d="M1.286 2.952h1.766v3.021H1.436a.272.272 0 0 1-.186-.071.235.235 0 0 1-.077-.173V2.952h.113z"/><path id="_512193072" class="fil1" d="M5.541 2.952H3.774v3.021h1.617a.272.272 0 0 0 .185-.071.235.235 0 0 0 .077-.173V2.952h-.112z"/><path id="_512193048" class="fil1" d="M3.052 2.846H.853V1.8h2.199z"/><path id="_512193000" class="fil1" d="M3.774 2.846H5.973V1.8H3.774z"/><path id="_512192784" class="fil1" d="M3.224 1.762V1.76a3.86 3.86 0 0 1-.281-.013h-.017c-.256-.017-.522-.035-.761-.214a.518.518 0 0 1-.195-.5c.013-.061.04-.111.08-.143a.16.16 0 0 1 .12-.036c.204.022.533.132.803.31.208.138.385.319.455.536l.017.055-.22.007z"/><path id="_512192736" class="fil1" d="M3.242 1.755 3.26 1.7c.07-.217.246-.398.454-.535a2.02 2.02 0 0 1 .803-.31.16.16 0 0 1 .12.035.245.245 0 0 1 .08.142.518.518 0 0 1-.195.5c-.239.18-.505.198-.761.214l-.017.001a7.605 7.605 0 0 1-.28.013l-.001.002-.221-.007z"/></g></g></svg>
